<?xml version="1.0" encoding="UTF-8"?>
<svg width="13px" height="17px" viewBox="0 0 13 17" version="1.1" xmlns="http://www.w3.org/2000/svg" xmlns:xlink="http://www.w3.org/1999/xlink">
    <title>Group</title>
    <defs>
        <filter id="filter-1">
            <feColorMatrix in="SourceGraphic" type="matrix" values="0 0 0 0 0.113725 0 0 0 0 0.223529 0 0 0 0 0.184314 0 0 0 1.000000 0"></feColorMatrix>
        </filter>
    </defs>
    <g id="Simbols" stroke="none" stroke-width="1" fill="none" fill-rule="evenodd">
        <g id="Group" transform="translate(-31.000000, -7.000000)" filter="url(#filter-1)">
            <g transform="translate(4.628105, 7.322070)">
                <g transform="translate(26.760000, 0.000000)" fill="#EC2227" fill-rule="nonzero">
                    <path d="M11.36,15.09 L0,15.09 L0.63,3.75 L10.73,3.75 L11.36,15.09 Z M0.53,14.59 L10.84,14.59 L10.26,4.25 L1.1,4.25 L0.53,14.59 Z" id="Shape"></path>
                    <path d="M3.23,4.06 L2.73,4.06 L2.73,2.96 C2.73,1.33 4.06,-4.4408921e-16 5.69,-4.4408921e-16 C7.32,-4.4408921e-16 8.65,1.33 8.65,2.96 L8.65,3.98 L8.15,3.98 L8.15,2.97 C8.15,1.62 7.05,0.51 5.69,0.51 C4.33,0.51 3.23,1.61 3.23,2.97 L3.23,4.06 L3.23,4.06 Z" id="Path"></path>
                </g>
            </g>
        </g>
    </g>
</svg>