<?xml version="1.0" encoding="UTF-8"?>
<svg width="64px" height="63px" viewBox="0 0 64 63" version="1.1" xmlns="http://www.w3.org/2000/svg" xmlns:xlink="http://www.w3.org/1999/xlink">
    <title>Group</title>
    <defs>
        <filter id="filter-1">
            <feColorMatrix in="SourceGraphic" type="matrix" values="0 0 0 0 0.113725 0 0 0 0 0.223529 0 0 0 0 0.184314 0 0 0 1.000000 0"></feColorMatrix>
        </filter>
    </defs>
    <g id="HOME" stroke="none" stroke-width="1" fill="none" fill-rule="evenodd">
        <g id="Revive-365-CBD-Desktop" transform="translate(-785.000000, -6418.000000)">
            <g id="Icons-Copy-3" transform="translate(165.000000, 6228.000000)" filter="url(#filter-1)">
                <g transform="translate(39.000000, 150.000000)">
                    <g id="Group" transform="translate(581.000000, 40.000000)" fill="#DA3A34" fill-rule="nonzero">
                        <path d="M51.4917474,5.07125891 L51.4917474,0 L12.5082526,0 L12.5082526,5.07125891 L0,5.07125891 L0,9.37767221 C0,17.5415677 6.10322243,24.3087886 14.2352633,25.2731591 C16.7167933,30.7268409 21.6630862,34.8337292 27.6824731,36.1971496 L27.6824731,46.672209 L21.5960178,46.672209 L19.5168981,54.4204276 L14.6712078,54.4204276 L14.6712078,63 L49.3287922,63 L49.3287922,54.4204276 L44.4831019,54.4204276 L42.4039822,46.672209 L36.3175269,46.672209 L36.3175269,36.1971496 C42.3201467,34.8337292 47.2832067,30.7268409 49.7647367,25.2731591 C57.8967776,24.3254157 64,17.5415677 64,9.37767221 L64,5.07125891 L51.4917474,5.07125891 Z M0.838354729,9.37767221 L0.838354729,5.90261283 L12.5082526,5.90261283 L12.5082526,17.3586698 C12.5082526,19.8361045 12.9944983,22.1971496 13.8496201,24.3752969 C6.38826303,23.2612827 0.838354729,16.95962 0.838354729,9.37767221 Z M48.4904375,55.2351544 L48.4904375,62.152019 L15.5095625,62.152019 L15.5095625,55.2351544 L19.2989259,55.2351544 L44.7178412,55.2351544 L48.4904375,55.2351544 Z M41.7668326,47.4869359 L43.6279801,54.4038005 L20.388787,54.4038005 L22.2499345,47.4869359 L27.6824731,47.4869359 L36.3342939,47.4869359 L41.7668326,47.4869359 Z M35.4959392,46.6555819 L28.5208279,46.6555819 L28.5208279,36.3467933 C29.6609903,36.5463183 30.8179198,36.6793349 32.0083835,36.6793349 C33.1988473,36.6793349 34.3557768,36.5629454 35.4959392,36.3467933 L35.4959392,46.6555819 Z M32.0083835,35.847981 C21.7133875,35.847981 13.3466073,27.5510689 13.3466073,17.3420428 L13.3466073,0.831353919 L50.6533927,0.831353919 L50.6533927,17.3586698 C50.6533927,27.5510689 42.2866125,35.847981 32.0083835,35.847981 Z M63.1616453,9.37767221 C63.1616453,16.9429929 57.611737,23.2612827 50.1336128,24.3752969 C50.9887346,22.1971496 51.4749804,19.8361045 51.4749804,17.3586698 L51.4749804,5.90261283 L63.1448782,5.90261283 L63.1448782,9.37767221 L63.1616453,9.37767221 Z" id="Shape"></path>
                    </g>
                </g>
            </g>
        </g>
    </g>
</svg>