<?xml version="1.0" encoding="UTF-8"?>
<svg width="68px" height="53px" viewBox="0 0 68 53" version="1.1" xmlns="http://www.w3.org/2000/svg" xmlns:xlink="http://www.w3.org/1999/xlink">
    <title>Head set icon</title>
    <defs>
        <filter id="filter-1">
            <feColorMatrix in="SourceGraphic" type="matrix" values="0 0 0 0 0.113725 0 0 0 0 0.223529 0 0 0 0 0.184314 0 0 0 1.000000 0"></feColorMatrix>
        </filter>
    </defs>
    <g id="HOME" stroke="none" stroke-width="1" fill="none" fill-rule="evenodd">
        <g id="Revive-365-CBD-Desktop" transform="translate(-779.000000, -6290.000000)">
            <g id="24/7-Support" transform="translate(165.000000, 6228.000000)" filter="url(#filter-1)">
                <g transform="translate(614.000000, 56.000000)">
                    <g id="Head-set-icon" transform="translate(0.000000, 6.000000)" fill="#DA3A34" fill-rule="nonzero">
                        <path d="M58.8900932,22.7058331 L58.4183828,22.7058331 C57.4454802,10.029026 46.8909603,0 34.0073705,0 C21.1237806,0 10.5692608,10.029026 9.59635812,22.7058331 L9.10990679,22.7058331 C4.08324301,22.7058331 0,26.8032375 0,31.8325426 C0,36.8618476 4.08324301,40.9740441 9.10990679,40.9740441 L10.2302189,40.9740441 L10.2302189,40.6042423 L10.2302189,40.6042423 L10.2302189,24.5992185 C10.2302189,11.449065 20.8879254,0.739603684 34.0073705,0.739603684 C47.1120746,0.739603684 57.784522,11.434273 57.784522,24.5992185 L57.784522,39.4208764 L57.784522,40.2492325 L57.7697811,40.2492325 L57.7697811,40.9888362 L57.784522,40.9888362 L57.784522,42.1722021 C57.784522,45.8850126 54.7773683,48.9025956 51.07739,48.9025956 L41.4073271,48.9025956 C41.2009538,47.0831705 39.6678951,45.6631315 37.7957945,45.6631315 L33.4619553,45.6631315 C31.4424453,45.6631315 29.8061999,47.3050516 29.8061999,49.3315657 C29.8061999,51.3580798 31.4424453,53 33.4619553,53 L37.7810535,53 C39.697377,53 41.2451767,51.5207926 41.4073271,49.6421993 L51.062649,49.6421993 C55.160633,49.6421993 58.5068285,46.2843985 58.5068285,42.1722021 L58.5068285,40.9888362 L58.8900932,40.9888362 C63.916757,40.9888362 68,36.8914318 68,31.8473346 C68,26.8032375 63.916757,22.7058331 58.8900932,22.7058331 Z M9.49317147,24.5992185 L9.49317147,40.2344404 L9.10990679,40.2344404 C4.49598959,40.2344404 0.737047475,36.4624616 0.737047475,31.8325426 C0.737047475,27.2026235 4.49598959,23.4306447 9.10990679,23.4306447 L9.56687622,23.4306447 C9.53739432,23.8300307 9.49317147,24.1998325 9.49317147,24.5992185 Z M37.7810535,52.2456042 L33.4619553,52.2456042 C31.8551918,52.2456042 30.5432473,50.9291097 30.5432473,49.3167737 C30.5432473,47.7044376 31.8551918,46.3879431 33.4619553,46.3879431 L37.7810535,46.3879431 C39.387817,46.3879431 40.6997615,47.7044376 40.6997615,49.3167737 C40.6997615,50.9291097 39.402558,52.2456042 37.7810535,52.2456042 Z M58.8900932,40.2344404 L58.5215695,40.2344404 L58.5215695,24.5992185 C58.5215695,24.2146246 58.4773466,23.8300307 58.4626057,23.4454368 L58.9048342,23.4454368 C63.5187514,23.4454368 67.2776935,27.2174156 67.2776935,31.8473346 C67.2629525,36.4624616 63.5040104,40.2344404 58.8900932,40.2344404 Z" id="Shape"></path>
                    </g>
                </g>
            </g>
        </g>
    </g>
</svg>