<?xml version="1.0" encoding="UTF-8"?>
<svg width="69px" height="72px" viewBox="0 0 69 72" version="1.1" xmlns="http://www.w3.org/2000/svg" xmlns:xlink="http://www.w3.org/1999/xlink">
    <title>Ribbon</title>
    <defs>
        <filter id="filter-1">
            <feColorMatrix in="SourceGraphic" type="matrix" values="0 0 0 0 1.000000 0 0 0 0 1.000000 0 0 0 0 1.000000 0 0 0 1.000000 0"></feColorMatrix>
        </filter>
    </defs>
    <g id="HOME" stroke="none" stroke-width="1" fill="none" fill-rule="evenodd">
        <g id="Ribbon" transform="translate(-545.000000, -1670.000000)" filter="url(#filter-1)">
            <g transform="translate(545.000000, 1670.000000)">
                <path d="M34.4907165,72 C32.1698513,72 30.1460568,70.6432628 28.1779631,69.3422819 C26.8597117,68.4687661 25.6342948,67.6510067 24.3531772,67.242127 C22.997792,66.7960764 21.4010367,66.7217346 19.8599822,66.6473929 C17.5391169,66.5358802 15.143984,66.4243676 13.3615595,65.1233867 C11.5605681,63.8038203 10.7064897,61.5549819 9.88954517,59.3618998 C9.35110444,57.9122354 8.79409679,56.4254001 7.95858531,55.2916882 C7.16020767,54.1765617 5.97192467,53.2472896 4.72794092,52.2436758 C2.88981566,50.7754259 0.995989636,49.2700052 0.290446608,47.114094 C-0.377962576,45.05111 0.253312765,42.7651007 0.847454262,40.5348477 C1.25592654,39.0108415 1.70153266,37.4496644 1.70153266,35.9814146 C1.70153266,34.5131647 1.27449346,32.9519876 0.847454262,31.4279814 C0.234745843,29.2163139 -0.377962576,26.9117192 0.290446608,24.8487352 C0.995989636,22.692824 2.88981566,21.1688178 4.72794092,19.7191533 C5.97192467,18.7341249 7.16020767,17.7862674 7.95858531,16.6711409 C8.77552986,15.537429 9.35110444,14.0505937 9.88954517,12.6009293 C10.7064897,10.4264326 11.5605681,8.15900878 13.3615595,6.83944244 C15.143984,5.53846154 17.5391169,5.42694889 19.8599822,5.31543624 C21.4010367,5.24109448 23.0163589,5.16675271 24.3531772,4.72070212 C25.6342948,4.31182241 26.8597117,3.49406298 28.1779631,2.62054724 C30.1460568,1.35673722 32.1698513,0 34.4907165,0 C36.8115818,0 38.8353762,1.35673722 40.8034699,2.65771812 C42.1217214,3.53123387 43.3471382,4.34899329 44.6282558,4.757873 C45.9836411,5.20392359 47.5803964,5.27826536 49.1214509,5.35260712 C51.4423161,5.46411977 53.837449,5.57563242 55.6384405,6.87661332 C57.4394319,8.19617966 58.2935103,10.4450181 59.1104548,12.6381002 C59.6488956,14.0877646 60.2059032,15.5745999 61.0414147,16.7083118 C61.8397923,17.8234383 63.0280753,18.7527104 64.2720591,19.7563242 C66.1101843,21.2245741 68.0040104,22.7299948 68.7095534,24.885906 C69.3779626,26.94889 68.7466872,29.2348993 68.1525457,31.4651523 C67.7440735,32.9891585 67.3170343,34.5503356 67.3170343,36.0185854 C67.3170343,37.4868353 67.7440735,39.0480124 68.1525457,40.5720186 C68.7652542,42.7836861 69.3779626,45.0882808 68.7095534,47.1512648 C68.0040104,49.307176 66.1101843,50.8311822 64.2720591,52.2808467 C63.0280753,53.2658751 61.8397923,54.2137326 61.0414147,55.3288591 C60.2244701,56.462571 59.6674625,57.9494063 59.1104548,59.3990707 C58.2935103,61.5735674 57.4394319,63.8409912 55.6384405,65.1605576 C53.856016,66.4615385 51.4608831,66.5730511 49.1400178,66.6845638 C47.5989633,66.7589055 45.9836411,66.8332473 44.6468228,67.2792979 C43.3657052,67.6881776 42.1402883,68.505937 40.8220369,69.3794528 C38.8353762,70.6432628 36.8115818,72 34.4907165,72 Z M34.4907165,0.92927207 C32.4483551,0.92927207 30.5359622,2.19308209 28.67927,3.43830666 C27.3795855,4.31182241 26.0242002,5.20392359 24.6316811,5.64997419 C23.1648942,6.13319566 21.4938713,6.20753743 19.897116,6.28187919 C17.6133846,6.39339184 15.4596217,6.48631905 13.9000003,7.62003098 C12.3218119,8.77232834 11.5605681,10.7981415 10.7436236,12.9540527 C10.1866159,14.4594734 9.59247442,16.002065 8.70126218,17.2472896 C7.82861685,18.4553433 6.52893233,19.4775426 5.30351549,20.462571 C3.57679176,21.8378936 1.79436727,23.2503872 1.18165885,25.1461022 C0.606084279,26.94889 1.16309193,29.011874 1.75723343,31.1863707 C2.18427263,32.7661332 2.62987875,34.401652 2.62987875,35.9814146 C2.62987875,37.5611771 2.18427263,39.1966959 1.75723343,40.7764584 C1.16309193,42.9509551 0.606084279,45.0139391 1.18165885,46.8167269 C1.79436727,48.7124419 3.57679176,50.1249355 5.30351549,51.5002581 C6.54749925,52.4852865 7.82861685,53.5074858 8.70126218,54.7155395 C9.59247442,55.9421786 10.1866159,57.5033557 10.7436236,59.0087765 C11.5420012,61.1646877 12.3218119,63.1905008 13.9000003,64.3427981 C15.4596217,65.4765101 17.6133846,65.5880227 19.897116,65.6995354 C21.5124382,65.7738771 23.1648942,65.8482189 24.6316811,66.3314404 C26.0242002,66.777491 27.3795855,67.6881776 28.67927,68.5431079 C30.5359622,69.769747 32.4483551,71.0521425 34.4907165,71.0521425 C36.5330779,71.0521425 38.4454709,69.7883325 40.3021631,68.5431079 C41.6018476,67.6695922 42.9572329,66.777491 44.349752,66.3314404 C45.8165388,65.8482189 47.4875618,65.7738771 49.0843171,65.6995354 C51.3680484,65.5880227 53.5218114,65.4950955 55.0814328,64.3427981 C56.6596212,63.1905008 57.4208649,61.1646877 58.2378095,59.0087765 C58.7948172,57.5033557 59.3889587,55.9607641 60.2801709,54.7341249 C61.1528162,53.5260712 62.4525007,52.503872 63.6779176,51.5188436 C65.4046413,50.1435209 67.1870658,48.7310274 67.7997742,46.8353123 C68.3753488,45.0325245 67.8183411,42.9695405 67.2241996,40.7950439 C66.7971604,39.2152814 66.3515543,37.5797625 66.3515543,36 C66.3515543,34.4202375 66.7971604,32.7847186 67.2241996,31.2049561 C67.8183411,29.0304595 68.3753488,26.9674755 67.7997742,25.1646877 C67.1870658,23.2689726 65.4046413,21.8564791 63.6779176,20.4811564 C62.4339338,19.496128 61.1528162,18.4739288 60.2801709,17.2658751 C59.3889587,16.0392359 58.7948172,14.4780589 58.2378095,12.9726381 C57.4394319,10.8167269 56.6596212,8.79091378 55.0814328,7.63861642 C53.5218114,6.50490449 51.3680484,6.39339184 49.0843171,6.28187919 C47.4689949,6.20753743 45.8165388,6.13319566 44.349752,5.64997419 C42.9572329,5.20392359 41.6018476,4.29323696 40.3021631,3.43830666 C38.4454709,2.19308209 36.5330779,0.92927207 34.4907165,0.92927207 Z" id="Shape" fill="#EC2227" fill-rule="nonzero"></path>
                <path d="M34.4907165,58.5069695 C22.0880128,58.5069695 12.0061743,48.4150749 12.0061743,36 C12.0061743,23.5849251 22.0880128,13.474445 34.4907165,13.474445 C46.8934203,13.474445 56.9752588,23.5663397 56.9752588,35.9814146 C56.9752588,48.3964894 46.8934203,58.5069695 34.4907165,58.5069695 Z M34.4907165,14.4037171 C22.6078866,14.4037171 12.9345203,24.0867321 12.9345203,35.9814146 C12.9345203,47.8760971 22.6078866,57.559112 34.4907165,57.559112 C46.3735465,57.559112 56.0469127,47.8760971 56.0469127,35.9814146 C56.0469127,24.0867321 46.3735465,14.4037171 34.4907165,14.4037171 Z" id="Shape" fill="#EC2227" fill-rule="nonzero"></path>
                <g id="Group" transform="translate(28.530735, 19.870925)" fill="#EC2227" fill-rule="nonzero">
                    <path d="M6.92546183,31.7594316 L5.99711574,31.7594316 L5.99711574,1.46516206 L0.594141497,5.925668 L0,5.20083578 L6.16421803,0.10842484 C6.29418649,-0.00308780826 6.49842263,-0.0402586911 6.66552492,0.052668516 C6.83262722,0.127010282 6.92546183,0.294279254 6.92546183,0.480133668 L6.92546183,31.7594316 Z" id="Path"></path>
                    <rect id="Rectangle" x="1.26255068" y="31.2762101" width="9.59909856" height="1"></rect>
                </g>
            </g>
        </g>
    </g>
</svg>