<?xml version="1.0" encoding="UTF-8"?>
<svg width="84px" height="65px" viewBox="0 0 84 65" version="1.1" xmlns="http://www.w3.org/2000/svg" xmlns:xlink="http://www.w3.org/1999/xlink">
    <title>Group 2</title>
    <g id="HOME" stroke="none" stroke-width="1" fill="none" fill-rule="evenodd">
        <g id="Revive-365-CBD-Desktop" transform="translate(-1108.000000, -1664.000000)" stroke="#FFFFFF">
            <g id="HIGHT-LIGTHTS" transform="translate(165.000000, 1626.000000)">
                <g id="Group-2" transform="translate(944.000000, 39.000000)">
                    <path d="M11.5546667,48.8152091 L11.5546667,29.3968061 C11.5546667,13.1729278 24.7061739,0 40.9437101,0 L40.9437101,0 C57.1633043,0 70.3327536,13.154981 70.3327536,29.3968061 L70.3327536,48.8331559" id="Path"></path>
                    <path d="M12.0032174,48.8152091 L10.6396232,48.8152091 C4.77257971,48.8152091 0,44.0593156 0,38.1727757 L0,38.1727757 C0,32.3041825 4.75463768,27.5303422 10.6396232,27.5303422 L12.0032174,27.5303422" id="Path"></path>
                    <path d="M69.8662609,48.8152091 L71.2298551,48.8152091 C77.0968986,48.8152091 81.8694783,44.0593156 81.8694783,38.1727757 L81.8694783,38.1727757 C81.8694783,32.3041825 77.1148406,27.5303422 71.2298551,27.5303422 L69.8662609,27.5303422" id="Path"></path>
                    <path d="M49.9147246,59.3140684 L61.7026377,59.3140684 C66.4572754,59.3140684 70.3148116,55.4555133 70.3148116,50.6996198 L70.3148116,47.5409886 L70.3148116,47.3794677" id="Path"></path>
                    <path d="M45.5368696,63.3879848 L40.2798551,63.3879848 C38.0729855,63.3879848 36.2787826,61.593308 36.2787826,59.3858555 L36.2787826,59.3858555 C36.2787826,57.178403 38.0729855,55.3837262 40.2798551,55.3837262 L45.5368696,55.3837262 C47.7437391,55.3837262 49.537942,57.178403 49.537942,59.3858555 L49.537942,59.3858555 C49.537942,61.593308 47.7616812,63.3879848 45.5368696,63.3879848 Z" id="Path"></path>
                </g>
            </g>
        </g>
    </g>
</svg>