<?xml version="1.0" encoding="UTF-8"?>
<svg width="90px" height="70px" viewBox="0 0 90 70" version="1.1" xmlns="http://www.w3.org/2000/svg" xmlns:xlink="http://www.w3.org/1999/xlink">
    <title>Lupa</title>
    <defs>
        <filter id="filter-1">
            <feColorMatrix in="SourceGraphic" type="matrix" values="0 0 0 0 1.000000 0 0 0 0 1.000000 0 0 0 0 1.000000 0 0 0 1.000000 0"></feColorMatrix>
        </filter>
    </defs>
    <g id="HOME" stroke="none" stroke-width="1" fill="none" fill-rule="evenodd">
        <g id="Revive-365-CBD-Desktop" transform="translate(-813.000000, -1665.000000)">
            <g id="Lupa" transform="translate(165.000000, 1626.000000)" filter="url(#filter-1)">
                <g transform="translate(648.000000, 39.000000)">
                    <g id="Group" fill="#EC2227" fill-rule="nonzero">
                        <path d="M59.0749788,58.6671743 C42.1852099,58.6671743 28.4398128,45.5176352 28.4398128,29.3335871 C28.4398128,13.1495391 42.1852099,0 59.0749788,0 C75.9647478,0 89.7101449,13.1495391 89.7101449,29.3335871 C89.7101449,45.5176352 75.9647478,58.6671743 59.0749788,58.6671743 Z M59.0749788,0.903127683 C42.6883094,0.903127683 29.3382047,13.6552906 29.3382047,29.3335871 C29.3382047,45.0118837 42.6703415,57.7640466 59.0749788,57.7640466 C75.4796162,57.7640466 88.811753,45.0118837 88.811753,29.3335871 C88.811753,13.6552906 75.4796162,0.903127683 59.0749788,0.903127683 Z" id="Shape"></path>
                        <path d="M59.0749788,51.676966 C46.2100059,51.676966 35.7527234,41.6522487 35.7527234,29.3335871 C35.7527234,17.0149255 46.2100059,6.99020827 59.0749788,6.99020827 C71.9399518,6.99020827 82.3972343,17.0149255 82.3972343,29.3335871 C82.3972343,41.6522487 71.9399518,51.676966 59.0749788,51.676966 Z M59.0749788,7.89333595 C46.7131054,7.89333595 36.6511153,17.5026145 36.6511153,29.3335871 C36.6511153,41.1645598 46.7131054,50.7738383 59.0749788,50.7738383 C71.4368523,50.7738383 81.4988664,41.1645598 81.4988664,29.3335871 C81.5168102,17.5026145 71.4548202,7.89333595 59.0749788,7.89333595 Z" id="Shape"></path>
                        <polygon id="Path" points="21.701873 57.9446721 17.9825303 52.164655 32.4646088 42.7540645 32.9677083 43.5126918 19.240279 52.4355933 21.9713906 56.6983559 35.8605304 47.6128915 36.3636299 48.3715187"></polygon>
                        <path d="M5.83627087,69.9923954 C3.91371206,69.9923954 2.04505677,69.0531426 0.931050734,67.3010749 L0.931050734,67.3010749 C0.0865622847,65.9825085 -0.200923145,64.4110664 0.140465803,62.8938118 C0.463886911,61.3584948 1.36227888,60.0579909 2.67393115,59.2090509 L17.4434951,49.6358975 L23.7681745,59.4980518 L8.9986106,69.0712052 C8.01037943,69.7033946 6.91434124,69.9923954 5.83627087,69.9923954 Z M1.68569999,66.8314485 C3.15906281,69.1253929 6.2135955,69.7937073 8.4955111,68.3125779 L22.5104258,59.2271135 L17.1739775,50.9002762 L3.15906281,59.9857407 C2.04505677,60.7082429 1.29040752,61.8100586 1.00292209,63.1105625 C0.733404501,64.3930038 0.966986413,65.7115702 1.68569999,66.8314485 L1.68569999,66.8314485 Z" id="Shape"></path>
                    </g>
                    <polygon id="Path" fill="#EC2227" fill-rule="nonzero" points="51.8047546 35.8935361 46.6492754 27.6333392 47.4243999 27.2075559 52.093173 34.6843114 73.0575866 21.5361217 73.5623188 22.2514377"></polygon>
                </g>
            </g>
        </g>
    </g>
</svg>