<?xml version="1.0" encoding="UTF-8"?>
<svg width="68px" height="68px" viewBox="0 0 68 68" version="1.1" xmlns="http://www.w3.org/2000/svg" xmlns:xlink="http://www.w3.org/1999/xlink">
    <title>Market</title>
    <defs>
        <filter id="filter-1">
            <feColorMatrix in="SourceGraphic" type="matrix" values="0 0 0 0 1.000000 0 0 0 0 1.000000 0 0 0 0 1.000000 0 0 0 1.000000 0"></feColorMatrix>
        </filter>
    </defs>
    <g id="HOME" stroke="none" stroke-width="1" fill="none" fill-rule="evenodd">
        <g id="Revive-365-CBD-Desktop" transform="translate(-257.000000, -1665.000000)">
            <g id="Market" transform="translate(165.000000, 1626.000000)" filter="url(#filter-1)">
                <g transform="translate(92.000000, 39.000000)">
                    <path d="M34,68 C15.2559395,68 0,52.7583041 0,34.0091817 C0,15.2600594 15.2559395,0 34,0 C52.7440605,0 68,15.2600594 68,34.0091817 C68,52.7583041 52.7440605,68 34,68 Z M34,0.918174453 C15.7516199,0.918174453 0.917926566,15.7558736 0.917926566,34.0091817 C0.917926566,52.2441264 15.7516199,67.100189 34,67.100189 C52.2483801,67.100189 67.0820734,52.2624899 67.0820734,34.0091817 C67.0820734,15.7558736 52.2300216,0.918174453 34,0.918174453 Z" id="Shape" fill="#1D392E" fill-rule="nonzero"></path>
                    <g id="Group" transform="translate(27.701533, 19.740751)" fill="#1D392E" fill-rule="nonzero">
                        <path d="M6.48205263,20.6038347 C4.79306775,20.6038347 3.21423406,19.9611126 1.98421246,18.8042128 C0.735832329,17.610586 0.038208139,15.994599 0.00149107641,14.2500675 C-0.0352259862,12.5238995 0.60732261,10.8711855 1.80062715,9.62246827 C2.99393168,8.37375101 4.60948244,7.67593843 6.33518438,7.63921145 C6.37190144,7.63921145 6.42697704,7.63921145 6.4636941,7.63921145 C9.97017358,7.63921145 12.8708215,10.4671888 12.9442557,13.9929787 L12.9442557,13.9929787 C13.0176898,17.573859 10.1721174,20.5303808 6.59220382,20.6038347 C6.57384529,20.6038347 6.53712823,20.6038347 6.48205263,20.6038347 Z M6.48205263,8.5573859 C6.44533557,8.5573859 6.40861851,8.5573859 6.37190144,8.5573859 C4.88486041,8.59411288 3.50797056,9.20010802 2.4798928,10.2651904 C1.45181505,11.3302728 0.901059111,12.7442614 0.937776174,14.231704 C0.974493236,15.7191466 1.58032477,17.0964083 2.64511959,18.1247637 C3.7099144,19.1531191 5.14187985,19.7223873 6.61056235,19.6672968 C9.67643708,19.6122063 12.1181217,17.0596813 12.0630462,13.9929787 C11.989612,10.9813665 9.5112103,8.5573859 6.48205263,8.5573859 Z" id="Shape"></path>
                        <g transform="translate(10.743207, 0.000000)">
                            <polygon id="Rectangle" transform="translate(4.839407, 5.355874) rotate(-46.187160) translate(-4.839407, -5.355874) " points="-1.55021519 4.89771687 11.229029 4.89599307 11.2289051 5.81403195 -1.55033902 5.81575575"></polygon>
                            <polygon id="Path" points="6.88247396 0.991628409 9.06713919 0.954901431 9.12221478 3.15852012 10.0401413 2.20361869 9.98506575 0 7.78204199 0.0550904672"></polygon>
                        </g>
                    </g>
                    <g id="Group" transform="translate(33.541037, 2.644342)" fill="#1D392E" fill-rule="nonzero">
                        <rect id="Rectangle" x="0" y="0" width="1.15254237" height="5.32541183"></rect>
                        <rect id="Rectangle" x="0" y="57.4042668" width="1.15254237" height="5.32541183"></rect>
                    </g>
                    <g id="Group" transform="translate(11.421333, 11.425046)" fill="#1D392E" fill-rule="nonzero">
                        <polygon id="Rectangle" transform="translate(42.870323, 2.290074) rotate(-45.000000) translate(-42.870323, -2.290074) " points="40.2080637 1.83141286 45.5327056 1.83069399 45.5325816 2.7487357 40.2079397 2.74945456"></polygon>
                        <polygon id="Rectangle" transform="translate(2.290074, 42.869198) rotate(-45.000000) translate(-2.290074, -42.869198) " points="-0.372184696 42.4105368 4.9524572 42.4098179 4.95233325 43.3278597 -0.372308638 43.3285785"></polygon>
                    </g>
                    <g id="Group" transform="translate(2.643629, 33.550095)" fill="#1D392E" fill-rule="nonzero">
                        <rect id="Rectangle" x="57.3887689" y="0" width="5.32397408" height="1.15254237"></rect>
                        <rect id="Rectangle" x="0" y="0" width="5.32397408" height="1.15254237"></rect>
                    </g>
                    <g id="Group" transform="translate(11.427189, 11.418821)" fill="#1D392E" fill-rule="nonzero">
                        <polygon id="Rectangle" transform="translate(42.858794, 42.879787) rotate(-45.008103) translate(-42.858794, -42.879787) " points="42.4001321 40.2175277 43.3181738 40.2174038 43.3174549 45.5420455 42.3994132 45.5421695"></polygon>
                        <polygon id="Rectangle" transform="translate(2.290074, 2.290074) rotate(-45.000000) translate(-2.290074, -2.290074) " points="1.83141286 -0.372184696 2.74945456 -0.372308638 2.7487357 4.95233325 1.83069399 4.9524572"></polygon>
                    </g>
                </g>
            </g>
        </g>
    </g>
</svg>