<?xml version="1.0" encoding="UTF-8"?>
<svg width="70px" height="64px" viewBox="0 0 70 64" version="1.1" xmlns="http://www.w3.org/2000/svg" xmlns:xlink="http://www.w3.org/1999/xlink">
    <title>Like ICON</title>
    <defs>
        <filter id="filter-1">
            <feColorMatrix in="SourceGraphic" type="matrix" values="0 0 0 0 0.113725 0 0 0 0 0.223529 0 0 0 0 0.184314 0 0 0 1.000000 0"></feColorMatrix>
        </filter>
        <filter id="filter-2">
            <feColorMatrix in="SourceGraphic" type="matrix" values="0 0 0 0 0.113725 0 0 0 0 0.223529 0 0 0 0 0.184314 0 0 0 1.000000 0"></feColorMatrix>
        </filter>
    </defs>
    <g id="HOME" stroke="none" stroke-width="1" fill="none" fill-rule="evenodd">
        <g id="Revive-365-CBD-Desktop" transform="translate(-208.000000, -6282.000000)">
            <g id="Happy-costumers" transform="translate(165.000000, 6228.000000)" filter="url(#filter-1)">
                <g transform="translate(43.000000, 44.000000)" filter="url(#filter-2)" id="Like-ICON">
                    <g transform="translate(0.000000, 10.000000)">
                        <path d="M70,39.7443492 C70,37.7160753 68.7983539,35.8856818 66.9876543,35.0446902 C68.1563786,34.1047584 68.8477366,32.6701256 68.8477366,31.1365527 C68.8477366,28.3827174 66.6255144,26.1400731 63.8930041,26.1400731 L50.5596708,26.1565631 C49.7037037,25.9586828 49.2427984,25.6948423 48.9300412,25.1836513 C48.4032922,24.3756397 49.2592593,22.2814057 49.9506173,20.5994225 L50.1152263,20.2036617 C50.4444444,19.3956502 53.3415638,12.1070562 53.5884774,6.68183578 C53.7201646,3.76310018 53.308642,1.8502565 52.3209877,0.827874543 C51.5802469,0.0528430559 50.526749,-0.178017387 49.2592593,0.135293214 C48.0082305,0.448603815 47.5308642,2.19654717 46.9876543,4.22482106 C46.6090535,5.60998372 46.2304527,7.02812644 45.5884774,7.95156821 C44.0740741,10.1282524 42.8230453,11.9256658 41.7201646,13.4922188 C38.345679,18.3237981 36.4855967,20.9951832 32.9794239,26.3214635 C31.4320988,28.679538 29.2427984,29.9987405 26.9382716,31.4168832 L26.1975309,31.8621141 C26.0823045,31.9445642 26,32.0764845 26,32.2084048 L26,58.6419255 C26,58.7738457 26.0658436,58.8892759 26.1646091,58.9717261 C27.9423868,60.3239087 29.654321,61 31.2674897,61 L58.6584362,61 C61.5390947,61 63.8930041,58.6749055 63.8930041,55.80564 C63.8930041,55.0306085 63.7119342,54.2720671 63.382716,53.5629957 C65.6872428,52.9858446 67.3333333,50.9245907 67.3333333,48.5335361 C67.3333333,47.1318834 66.7572016,45.7961908 65.7695473,44.839769 C68.1728395,44.3780481 70,42.2673241 70,39.7443492 Z M64.7654321,44.1142076 L64.6995885,44.1142076 C64.5185185,44.1142076 64.3539095,44.2296378 64.3045267,44.4110282 C64.255144,44.5924185 64.3209877,44.7738089 64.4691358,44.8727491 C65.7366255,45.6807606 66.4938272,47.0494332 66.4938272,48.5500261 C66.4938272,50.6772402 64.962963,52.4911437 62.8395062,52.8539244 C62.7572016,52.8704144 62.6748971,52.9198845 62.6090535,52.9693546 C62.5761317,53.0023347 62.5432099,53.0518047 62.4773663,53.1342549 C62.3621399,53.2661752 62.345679,53.4640555 62.4444444,53.6124658 C62.8395062,54.2885571 63.0534979,55.0470986 63.0534979,55.8221301 C63.0534979,58.2296747 61.0781893,60.1919884 58.6419753,60.1919884 L31.2510288,60.1919884 C29.8683128,60.1919884 28.3703704,59.5983473 26.8065844,58.4440451 L26.8065844,32.4392652 L27.3497942,32.1094646 C29.7366255,30.6583418 32.0082305,29.2731791 33.654321,26.7666943 C37.1440329,21.4404141 39.0041152,18.785519 42.3786008,13.9539397 C43.4814815,12.3873867 44.7325103,10.5899733 46.2469136,8.4132891 C46.9711934,7.3744171 47.382716,5.87382423 47.7613169,4.42270144 C48.2057613,2.80667834 48.6502058,1.12469511 49.4403292,0.926814733 C50.4279835,0.679464258 51.1851852,0.827874543 51.7119342,1.38853562 C52.5185185,2.22952723 52.8641975,3.99396062 52.7489712,6.63236568 C52.5185185,11.9256658 49.6707819,19.0823396 49.3415638,19.8903511 L49.1769547,20.2861119 C48.3374486,22.3473658 47.4650206,24.4580899 48.2222222,25.6288821 C48.6666667,26.3214635 49.308642,26.7172242 50.4609053,26.9645747 L63.8930041,26.9645747 C66.1646091,26.9645747 68.0246914,28.8444383 68.0246914,31.1365527 C68.0246914,32.6536356 67.2016461,34.0552883 65.8847737,34.7973397 C65.7366255,34.8797899 65.654321,35.0446902 65.6707819,35.2095905 C65.6872428,35.3744908 65.8024691,35.5064111 65.9670782,35.5558812 C67.8436214,36.0835622 69.1605951,37.8150155 69.1605951,39.7608392 C69.1769547,42.1518938 67.1851852,44.1142076 64.7654321,44.1142076 Z" id="Shape" fill="#DA3A34" fill-rule="nonzero"></path>
                        <path d="M22.5869253,26 L0.413074713,26 C0.181752874,26 0,26.1796304 0,26.408251 L0,63.591749 C0,63.8203696 0.181752874,64 0.413074713,64 L22.5869253,64 C22.8182471,64 23,63.8203696 23,63.591749 L23,26.408251 C23,26.1796304 22.8182471,26 22.5869253,26 Z M22.1738506,63.1834981 L0.826149425,63.1834981 L0.826149425,26.8165019 L22.1738506,26.8165019 L22.1738506,63.1834981 Z" id="Shape" fill="#DA3A34" fill-rule="nonzero"></path>
                    </g>
                </g>
            </g>
        </g>
    </g>
</svg>