<?xml version="1.0" encoding="UTF-8"?>
<svg width="76px" height="62px" viewBox="0 0 76 62" version="1.1" xmlns="http://www.w3.org/2000/svg" xmlns:xlink="http://www.w3.org/1999/xlink">
    <title>logo revive365</title>
    <g id="Simbols" stroke="none" stroke-width="1" fill="none" fill-rule="evenodd">
        <g id="HOME" transform="translate(-34.000000, -84.000000)" fill="#1D392F" fill-rule="nonzero">
            <g id="logo-revive365" transform="translate(34.000000, 84.000000)">
                <g id="Group" transform="translate(0.000000, 21.000000)">
                    <g transform="translate(0.000000, 16.774194)">
                        <path d="M6.0789193,23.2258065 C3.91930323,23.2258065 1.83967295,22.5798976 0,21.5302957 L0,17.1704108 C1.81301102,18.4891414 3.97262709,19.404179 6.26555279,19.404179 C8.37184501,19.404179 10.1581941,18.3276642 10.1581941,16.2015475 C10.1581941,14.0754308 8.31852115,13.1334804 6.26555279,13.1334804 C5.33238535,13.1334804 4.4792037,13.214219 3.54603626,13.3756962 L3.54603626,9.85011027 L6.21222894,9.36567862 C8.02523996,9.04272418 9.27835052,8.15459948 9.27835052,6.40526296 C9.27835052,4.81740366 7.9719161,3.92927896 6.45218628,3.92927896 C4.23924636,3.92927896 2.2929257,4.87122939 0.719872023,6.29761148 L0.719872023,2.07229096 C2.53288304,0.67282174 4.71916104,0 6.98542481,0 C10.7447565,0 13.7042304,2.34141965 13.7042304,6.13613427 C13.7042304,7.91238366 12.9310345,9.50024296 11.1980092,10.7651478 C13.5175969,12.0300527 14.6907216,13.9677793 14.6907216,16.2822861 C14.6907216,20.8843868 10.6381088,23.2258065 6.0789193,23.2258065 Z" id="Path"></path>
                        <path d="M23.3291859,23.2258065 C18.7966584,23.2258065 15.277284,20.3999551 15.277284,15.8247673 C15.277284,13.833215 15.9971561,12.0031398 17.0636331,10.3345419 L23.5958052,0.322954435 L28.4216139,0.322954435 L22.929257,8.61211827 C23.2758621,8.55829253 23.649129,8.53137966 23.9957341,8.53137966 C28.2883043,8.53137966 31.5145457,11.3841438 31.5145457,15.690203 C31.5410594,20.3461294 27.9683612,23.2258065 23.3291859,23.2258065 Z M27.0885176,15.6094644 C27.0885176,13.4833477 25.488802,12.0569656 23.3558478,12.0569656 C22.3693566,12.0569656 21.5161749,12.3530071 20.8496267,12.8912645 C20.1030928,13.5371734 19.64984,14.4791238 19.64984,15.6363772 C19.64984,17.7624939 21.1962318,19.2696146 23.3291859,19.2696146 C25.5154639,19.2965275 27.0885176,17.8163197 27.0885176,15.6094644 Z" id="Shape"></path>
                        <path d="M38.0732314,23.2258065 C36.0735869,23.2258065 34.0739424,22.7413748 32.3142552,21.7186858 L32.3142552,17.4395395 C33.860647,18.7313572 35.7269819,19.4310918 37.7532883,19.4310918 C40.0995379,19.4310918 42.0191966,18.1123612 42.0191966,15.690203 C42.0191966,13.3487833 40.2061856,11.976227 37.859936,11.976227 C36.1535727,11.976227 34.4472094,12.37992 32.9008176,13.0527417 L32.9008176,0.296041565 L45.6185567,0.296041565 L45.6185567,4.11766905 L37.0600782,4.11766905 L37.0600782,8.69285688 C37.7532883,8.53137966 38.4731603,8.45064105 39.1663704,8.45064105 C43.4322787,8.45064105 46.5517241,11.4110567 46.5517241,15.690203 C46.5517241,20.4537809 42.7923925,23.2258065 38.0732314,23.2258065 Z" id="Path"></path>
                    </g>
                    <g transform="translate(0.646552, 0.000000)">
                        <path d="M7.16309438,3.79127777 L4.12340488,3.79127777 L4.12340488,14.4369849 L0,14.4369849 L0,2.33502538 C0,1.20517439 0.977987055,0.276185798 2.16743077,0.276185798 L9.11906849,0.276185798 L9.11906849,3.79127777 L7.16309438,3.79127777" id="Path"></path>
                        <path d="M23.9474668,8.71240653 L13.6389546,8.71240653 C14.1940283,10.3946291 15.7799533,11.3738333 17.8945199,11.3738333 C19.6126053,11.3738333 21.2778265,10.9218929 22.8108873,10.0933355 L22.8108873,13.4326729 C21.1720981,14.3365537 19.4011486,14.7382785 17.5244707,14.7382785 C12.81956,14.7382785 9.19836474,12.0015283 9.19836474,7.53233994 C9.19836474,3.21379837 12.2116221,0 16.7843724,0 C21.0663698,0 24.0267631,2.91250478 24.0267631,6.97996834 C24.0531951,7.55744774 24.0267631,8.13492713 23.9474668,8.71240653 Z M13.5596584,5.95054855 L19.8240619,5.95054855 C19.5861732,4.36875716 18.555322,3.18869057 16.8108045,3.18869057 C15.0134229,3.21379837 13.9561396,4.39386496 13.5596584,5.95054855 Z" id="Shape"></path>
                        <path d="M30.2118704,14.3114459 L23.048776,0.276185798 L27.8065509,0.276185798 L31.2955858,8.16003493 L34.7846207,0.276185798 L39.0930501,0.276185798 L31.9828199,14.3114459 C31.6392028,15.0144643 30.5819195,15.0144643 30.2118704,14.3114459 Z" id="Path"></path>
                        <polygon id="Path" points="39.8067164 0.276185798 43.9301212 0.276185798 43.9301212 14.4369849 39.8067164 14.4369849"></polygon>
                        <path d="M74.274152,8.71240653 L63.9392077,8.71240653 C64.4942815,10.3946291 66.0802064,11.3738333 68.194773,11.3738333 C69.9128584,11.3738333 71.5780796,10.9218929 73.1111404,10.0933355 L73.1111404,13.4326729 C71.4723513,14.3365537 69.7014017,14.7382785 67.851156,14.7382785 C63.1462453,14.7382785 59.52505,12.0015283 59.52505,7.53233994 C59.52505,3.21379837 62.5383074,0 67.1110577,0 C71.393055,0 74.3534483,2.91250478 74.3534483,6.97996834 C74.3534483,7.55744774 74.3270162,8.13492713 74.274152,8.71240653 Z M63.8863436,5.95054855 L70.1243151,5.95054855 C69.8864263,4.36875716 68.8555751,3.18869057 67.1110577,3.18869057 C65.3401081,3.21379837 64.2563927,4.39386496 63.8863436,5.95054855 Z" id="Shape"></path>
                        <path d="M51.9390423,14.3114459 L44.7495158,0.276185798 L49.5072907,0.276185798 L52.9963256,8.16003493 L56.4853605,0.276185798 L60.7937899,0.276185798 L53.6835597,14.3114459 C53.3399426,15.0144643 52.3090914,15.0144643 51.9390423,14.3114459 Z" id="Path"></path>
                    </g>
                </g>
                <g id="Group">
                    <path d="M27.4722222,7.44670905 L27.4722222,0 L20.0714805,0 C18.867292,0 17.8888889,0.98448018 17.8888889,2.19614809 L17.8888889,9.64285714 L25.2896306,9.64285714 C26.4938191,9.64285714 27.4722222,8.65837696 27.4722222,7.44670905 Z" id="Path"></path>
                    <path d="M38.7691415,3.21428571 L23,18 L35.0336427,18 C36.5812065,18 38.0487239,17.424583 39.1426914,16.3988397 L46,9.96918057 L38.7691415,3.21428571 Z" id="Path"></path>
                    <path d="M0,9.98274614 L6.85730858,16.4015444 C7.9512761,17.425555 9.4187935,18 10.9663573,18 L23,18 L7.20417633,3.21428571 L0,9.98274614 Z" id="Path"></path>
                </g>
            </g>
        </g>
    </g>
</svg>