<svg id="Simbols" xmlns="http://www.w3.org/2000/svg" width="75" height="61" viewBox="0 0 75 61">
  <g id="HOME" transform="translate(-34 -84)">
    <g id="logo-revive365" transform="translate(34 84)">
      <g id="Group" transform="translate(0 21)">
        <g id="Group_1" data-name="Group 1" transform="translate(0 16.774)">
          <path id="Path" d="M6.079,23.226A12.308,12.308,0,0,1,0,21.53V17.17A10.773,10.773,0,0,0,6.266,19.4c2.106,0,3.893-1.076,3.893-3.2s-1.84-3.068-3.893-3.068a15.477,15.477,0,0,0-2.72.242V9.85l2.666-.484c1.813-.323,3.066-1.211,3.066-2.96A2.554,2.554,0,0,0,6.452,3.929,8.5,8.5,0,0,0,.72,6.3V2.072A10.145,10.145,0,0,1,6.985,0C10.745,0,13.7,2.341,13.7,6.136A5.544,5.544,0,0,1,11.2,10.765a6.1,6.1,0,0,1,3.493,5.517C14.691,20.884,10.638,23.226,6.079,23.226Z" fill="#fff"/>
          <path id="Shape" d="M23.329,23.226c-4.533,0-8.052-2.826-8.052-7.4a10.183,10.183,0,0,1,1.786-5.49L23.6.323h4.826L22.929,8.612A7.113,7.113,0,0,1,24,8.531c4.293,0,7.519,2.853,7.519,7.159C31.541,20.346,27.968,23.226,23.329,23.226Zm3.759-7.616a3.5,3.5,0,0,0-3.733-3.552,3.911,3.911,0,0,0-2.506.834,3.527,3.527,0,0,0-1.2,2.745,3.524,3.524,0,0,0,3.679,3.633A3.522,3.522,0,0,0,27.088,15.609Z" fill="#fff"/>
          <path id="Path-2" data-name="Path" d="M38.073,23.226a11.445,11.445,0,0,1-5.759-1.507V17.44a8.373,8.373,0,0,0,5.439,1.992c2.346,0,4.266-1.319,4.266-3.741,0-2.341-1.813-3.714-4.159-3.714A12.545,12.545,0,0,0,32.9,13.053V.3H45.619V4.118H37.06V8.693a9.37,9.37,0,0,1,2.106-.242,7.033,7.033,0,0,1,7.385,7.24C46.552,20.454,42.792,23.226,38.073,23.226Z" fill="#fff"/>
        </g>
        <g id="Group_2" data-name="Group 2" transform="translate(0.647)">
          <path id="Path-3" data-name="Path" d="M7.163,3.791H4.123V14.437H0V2.335A2.125,2.125,0,0,1,2.167.276H9.119V3.791H7.163" fill="#fff"/>
          <path id="Shape-2" data-name="Shape" d="M23.948,8.712H13.639c.555,1.682,2.141,2.661,4.256,2.661a10.3,10.3,0,0,0,4.916-1.281v3.339a10.751,10.751,0,0,1-5.286,1.306C12.82,14.738,9.2,12,9.2,7.532A7.238,7.238,0,0,1,16.784,0c4.282,0,7.242,2.912,7.242,6.98A9.515,9.515,0,0,1,23.948,8.712ZM13.56,5.951h6.264a2.959,2.959,0,0,0-3.013-2.762A3.313,3.313,0,0,0,13.56,5.951Z" fill="#fff"/>
          <path id="Path-4" data-name="Path" d="M30.212,14.311,23.049.276h4.758L31.3,8.16,34.785.276h4.309l-7.11,14.035A1.007,1.007,0,0,1,30.212,14.311Z" fill="#fff"/>
          <path id="Path-5" data-name="Path" d="M39.807.276H43.93V14.437H39.807Z" fill="#fff"/>
          <path id="Shape-3" data-name="Shape" d="M74.274,8.712H63.939c.555,1.682,2.141,2.661,4.256,2.661a10.3,10.3,0,0,0,4.916-1.281v3.339a10.721,10.721,0,0,1-5.26,1.306c-4.7,0-8.326-2.737-8.326-7.206A7.238,7.238,0,0,1,67.111,0c4.282,0,7.242,2.912,7.242,6.98Q74.353,7.846,74.274,8.712ZM63.886,5.951h6.238a2.959,2.959,0,0,0-3.013-2.762A3.285,3.285,0,0,0,63.886,5.951Z" fill="#fff"/>
          <path id="Path-6" data-name="Path" d="M51.939,14.311,44.75.276h4.758L53,8.16,56.485.276h4.308l-7.11,14.035A.985.985,0,0,1,51.939,14.311Z" fill="#fff"/>
        </g>
      </g>
      <g id="Group-2" data-name="Group">
        <path id="Path-7" data-name="Path" d="M27.472,7.447V0h-7.4a2.191,2.191,0,0,0-2.183,2.2V9.643h7.4A2.191,2.191,0,0,0,27.472,7.447Z" fill="#fff"/>
        <path id="Path-8" data-name="Path" d="M38.769,3.214,23,18H35.034a6,6,0,0,0,4.109-1.6L46,9.969Z" fill="#fff"/>
        <path id="Path-9" data-name="Path" d="M0,9.983,6.857,16.4A6,6,0,0,0,10.966,18H23L7.2,3.214Z" fill="#fff"/>
      </g>
    </g>
  </g>
</svg>
